<svg width="38" height="68" viewBox="0 0 38 68" fill="none" xmlns="http://www.w3.org/2000/svg">
<path d="M26.062 9.64102C24.9296 8.44277 24.5794 6.42446 24.5794 4.80153C24.5794 2.14972 22.0814 0 19 0C15.9186 0 13.4206 2.14972 13.4206 4.80153C13.4206 6.42446 13.0704 8.44277 11.938 9.64102C10.6651 10.988 9.90213 12.7061 9.90213 14.5776C9.90213 15.4407 10.0644 16.2713 10.3642 17.0478C10.9949 18.6818 10.6987 20.863 9.36095 22.0332C6.96008 24.1334 5.47886 27.0145 5.47886 30.1934C5.47886 32.0079 5.96149 33.7255 6.8223 35.2561C7.62929 36.6911 7.36016 38.6346 6.05908 39.6766C2.33154 42.662 0 46.9211 0 51.6488C0 60.6793 8.50659 68 19 68C29.4934 68 38 60.6793 38 51.6488C38 46.9211 35.6685 42.662 31.9409 39.6766C30.6398 38.6346 30.3707 36.6911 31.1777 35.2561C32.0385 33.7255 32.5211 32.0079 32.5211 30.1934C32.5211 27.0145 31.0399 24.1334 28.639 22.0332C27.3013 20.863 27.005 18.6818 27.6358 17.0478C27.9356 16.2713 28.0979 15.4407 28.0979 14.5776C28.0979 12.7061 27.3349 10.988 26.062 9.64102Z" fill="white"/>
<path d="M11.2481 51.6866C12.6121 51.6866 13.7378 50.6123 13.7378 49.2627C13.7378 47.8739 12.5724 46.8257 11.2481 46.8257C9.79132 46.8257 8.74512 48.018 8.74512 49.2627C8.74512 50.6385 9.88402 51.6866 11.2481 51.6866Z" fill="#001B63"/>
<path d="M14.1989 57.13C13.7559 57.13 13.3988 57.0047 13.1276 56.7543C12.8564 56.5039 12.7208 56.155 12.7208 55.7078C12.7208 55.2606 12.8564 54.9117 13.1276 54.6613C13.3988 54.4198 13.7559 54.299 14.1989 54.299C14.6238 54.299 14.981 54.4198 15.2703 54.6613C15.5596 54.9117 15.7042 55.2561 15.7042 55.6944C15.7042 56.1505 15.5596 56.5039 15.2703 56.7543C14.99 57.0047 14.6329 57.13 14.1989 57.13ZM14.1989 56.4591C14.425 56.4591 14.6058 56.392 14.7414 56.2579C14.886 56.1237 14.9584 55.9404 14.9584 55.7078C14.9584 55.4752 14.886 55.2919 14.7414 55.1577C14.5967 55.0235 14.4159 54.9565 14.1989 54.9565C13.982 54.9565 13.8012 55.0235 13.6565 55.1577C13.5119 55.2919 13.4395 55.4752 13.4395 55.7078C13.4395 55.9404 13.5073 56.1237 13.6429 56.2579C13.7695 56.392 13.9548 56.4591 14.1989 56.4591Z" fill="#001B63"/>
<path d="M13.5474 59.6456C13.1044 59.6456 12.7473 59.5204 12.4761 59.2699C12.2048 59.0195 12.0692 58.6707 12.0692 58.2234C12.0692 57.7762 12.2048 57.4274 12.4761 57.1769C12.7473 56.9354 13.1044 56.8147 13.5474 56.8147C13.9723 56.8147 14.3294 56.9354 14.6187 57.1769C14.908 57.4274 15.0526 57.7717 15.0526 58.21C15.0526 58.6662 14.908 59.0195 14.6187 59.2699C14.3384 59.5204 13.9813 59.6456 13.5474 59.6456ZM13.5474 58.9748C13.7734 58.9748 13.9542 58.9077 14.0898 58.7735C14.2345 58.6394 14.3068 58.456 14.3068 58.2234C14.3068 57.9909 14.2345 57.8075 14.0898 57.6734C13.9452 57.5392 13.7644 57.4721 13.5474 57.4721C13.3304 57.4721 13.1496 57.5392 13.0049 57.6734C12.8603 57.8075 12.788 57.9909 12.788 58.2234C12.788 58.456 12.8558 58.6394 12.9914 58.7735C13.118 58.9077 13.3033 58.9748 13.5474 58.9748Z" fill="#001B63"/>
<path d="M12.8958 62.9998C12.4528 62.9998 12.0957 62.8746 11.8245 62.6241C11.5533 62.3737 11.4177 62.0249 11.4177 61.5776C11.4177 61.1304 11.5533 60.7816 11.8245 60.5311C12.0957 60.2896 12.4528 60.1689 12.8958 60.1689C13.3207 60.1689 13.6778 60.2896 13.9671 60.5311C14.2564 60.7816 14.4011 61.1259 14.4011 61.5642C14.4011 62.0204 14.2564 62.3737 13.9671 62.6241C13.6869 62.8746 13.3298 62.9998 12.8958 62.9998ZM12.8958 62.329C13.1218 62.329 13.3026 62.2619 13.4383 62.1277C13.5829 61.9935 13.6552 61.8102 13.6552 61.5776C13.6552 61.3451 13.5829 61.1617 13.4383 61.0275C13.2936 60.8934 13.1128 60.8263 12.8958 60.8263C12.6788 60.8263 12.498 60.8934 12.3534 61.0275C12.2087 61.1617 12.1364 61.3451 12.1364 61.5776C12.1364 61.8102 12.2042 61.9935 12.3398 62.1277C12.4664 62.2619 12.6517 62.329 12.8958 62.329Z" fill="#001B63"/>
<path d="M12.8428 52.5817C12.8428 51.893 12.9694 51.249 13.2226 50.6497C13.4847 50.0504 13.8464 49.5227 14.3074 49.0665C14.7685 48.6103 15.3019 48.2525 15.9076 47.9932C16.5224 47.7338 17.1778 47.6041 17.874 47.6041C18.5701 47.6041 19.221 47.7338 19.8267 47.9932C20.4324 48.2436 20.9658 48.5969 21.4269 49.0531C21.888 49.5092 22.2496 50.0414 22.5118 50.6497C22.774 51.249 22.9051 51.893 22.9051 52.5817H12.8428ZM13.887 51.7364H21.8473C21.7479 51.2803 21.5761 50.8599 21.332 50.4753C21.0879 50.0817 20.785 49.7418 20.4234 49.4556C20.0708 49.1694 19.6776 48.9502 19.2436 48.7982C18.8097 48.6372 18.3531 48.5567 17.874 48.5567C17.3948 48.5567 16.9337 48.6372 16.4907 48.7982C16.0568 48.9502 15.659 49.1738 15.2974 49.469C14.9448 49.7552 14.6465 50.0906 14.4024 50.4753C14.1583 50.8599 13.9865 51.2803 13.887 51.7364Z" fill="#001B63"/>
<path d="M26.5438 51.6866C27.9079 51.6866 29.0335 50.6123 29.0335 49.2627C29.0335 47.8739 27.8681 46.8257 26.5438 46.8257C25.0871 46.8257 24.0409 48.018 24.0409 49.2627C24.0409 50.6385 25.1798 51.6866 26.5438 51.6866Z" fill="#001B63"/>
<path d="M29.4947 57.13C29.0517 57.13 28.6946 57.0047 28.4234 56.7543C28.1522 56.5039 28.0166 56.155 28.0166 55.7078C28.0166 55.2606 28.1522 54.9117 28.4234 54.6613C28.6946 54.4198 29.0517 54.299 29.4947 54.299C29.9196 54.299 30.2767 54.4198 30.566 54.6613C30.8553 54.9117 31 55.2561 31 55.6944C31 56.1505 30.8553 56.5039 30.566 56.7543C30.2858 57.0047 29.9287 57.13 29.4947 57.13ZM29.4947 56.4591C29.7207 56.4591 29.9015 56.392 30.0371 56.2579C30.1818 56.1237 30.2541 55.9404 30.2541 55.7078C30.2541 55.4752 30.1818 55.2919 30.0371 55.1577C29.8925 55.0235 29.7117 54.9565 29.4947 54.9565C29.2777 54.9565 29.0969 55.0235 28.9523 55.1577C28.8076 55.2919 28.7353 55.4752 28.7353 55.7078C28.7353 55.9404 28.8031 56.1237 28.9387 56.2579C29.0653 56.392 29.2506 56.4591 29.4947 56.4591Z" fill="#001B63"/>
<path d="M28.8431 59.6456C28.4002 59.6456 28.0431 59.5204 27.7718 59.2699C27.5006 59.0195 27.365 58.6707 27.365 58.2234C27.365 57.7762 27.5006 57.4274 27.7718 57.1769C28.0431 56.9354 28.4002 56.8147 28.8431 56.8147C29.2681 56.8147 29.6252 56.9354 29.9145 57.1769C30.2038 57.4274 30.3484 57.7717 30.3484 58.21C30.3484 58.6662 30.2038 59.0195 29.9145 59.2699C29.6342 59.5204 29.2771 59.6456 28.8431 59.6456ZM28.8431 58.9748C29.0692 58.9748 29.25 58.9077 29.3856 58.7735C29.5302 58.6394 29.6026 58.456 29.6026 58.2234C29.6026 57.9909 29.5302 57.8075 29.3856 57.6734C29.2409 57.5392 29.0601 57.4721 28.8431 57.4721C28.6262 57.4721 28.4454 57.5392 28.3007 57.6734C28.1561 57.8075 28.0837 57.9909 28.0837 58.2234C28.0837 58.456 28.1515 58.6394 28.2872 58.7735C28.4137 58.9077 28.5991 58.9748 28.8431 58.9748Z" fill="#001B63"/>
<path d="M28.1916 62.9998C27.7486 62.9998 27.3915 62.8746 27.1203 62.6241C26.8491 62.3737 26.7134 62.0249 26.7134 61.5776C26.7134 61.1304 26.8491 60.7816 27.1203 60.5311C27.3915 60.2896 27.7486 60.1689 28.1916 60.1689C28.6165 60.1689 28.9736 60.2896 29.2629 60.5311C29.5522 60.7816 29.6968 61.1259 29.6968 61.5642C29.6968 62.0204 29.5522 62.3737 29.2629 62.6241C28.9826 62.8746 28.6255 62.9998 28.1916 62.9998ZM28.1916 62.329C28.4176 62.329 28.5984 62.2619 28.734 62.1277C28.8787 61.9935 28.951 61.8102 28.951 61.5776C28.951 61.3451 28.8787 61.1617 28.734 61.0275C28.5894 60.8934 28.4086 60.8263 28.1916 60.8263C27.9746 60.8263 27.7938 60.8934 27.6491 61.0275C27.5045 61.1617 27.4322 61.3451 27.4322 61.5776C27.4322 61.8102 27.5 61.9935 27.6356 62.1277C27.7622 62.2619 27.9475 62.329 28.1916 62.329Z" fill="#001B63"/>
</svg>
